<svg width="18" height="18" viewBox="0 0 18 18" fill="none" xmlns="http://www.w3.org/2000/svg">
<path fill-rule="evenodd" clip-rule="evenodd" d="M13.4775 4.52344C13.7696 4.81568 13.9335 5.21183 13.9336 5.625C13.9336 6.03837 13.7698 6.43521 13.4775 6.72754L13.1249 7.08019L10.9203 4.8756L11.2725 4.52344C11.5648 4.2311 11.9616 4.06641 12.375 4.06641C12.7884 4.06641 13.1852 4.2311 13.4775 4.52344ZM12.33 7.87511L10.1254 5.67052L3.5625 12.2334V14.4375H5.76758L12.33 7.87511ZM14.2725 7.52344C14.7758 7.02012 15.0586 6.33679 15.0586 5.625C15.0585 4.91329 14.7757 4.2308 14.2725 3.72754C13.7692 3.2243 13.0867 2.94141 12.375 2.94141C11.6633 2.94141 10.9808 3.2243 10.4775 3.72754L2.60254 11.6025C2.4971 11.708 2.43756 11.8509 2.4375 12V15C2.4375 15.3107 2.68934 15.5625 3 15.5625H6C6.11209 15.5625 6.22066 15.5292 6.3125 15.4678L6.39746 15.3984L14.2725 7.52344Z" fill="#BDBDBD"/>
</svg>
