<svg width="15" height="17" viewBox="0 0 15 17" fill="none" xmlns="http://www.w3.org/2000/svg">
<path fill-rule="evenodd" clip-rule="evenodd" d="M10 2.91667V3.95801C10 4.30319 10.2798 4.58301 10.625 4.58301C10.9702 4.58301 11.25 4.30319 11.25 3.95801V2.91667H12.292C12.8671 2.91684 13.333 3.38347 13.333 3.95866V6.66667H1.25V3.95866C1.25 3.38336 1.7167 2.91667 2.29199 2.91667H3.33333V3.95801C3.33333 4.30319 3.61316 4.58301 3.95833 4.58301C4.30351 4.58301 4.58333 4.30319 4.58333 3.95801V2.91667H10ZM1.25 7.91667H13.333V13.9587C13.3328 14.5337 12.867 14.9995 12.292 14.9997H2.29199C1.7168 14.9997 1.25018 14.5338 1.25 13.9587V7.91667ZM14.583 7.29167V3.95866C14.583 2.69311 13.5575 1.66684 12.292 1.66667H11.25V0.625C11.25 0.279822 10.9702 0 10.625 0C10.2798 0 10 0.279822 10 0.625V1.66667H4.58333V0.625C4.58333 0.279822 4.30351 0 3.95833 0C3.61316 0 3.33333 0.279822 3.33333 0.625V1.66667H2.29199C1.02634 1.66667 0 2.69301 0 3.95866V7.29167V13.9587C0.00017625 15.2242 1.02645 16.2497 2.29199 16.2497H12.292C13.5574 16.2495 14.5828 15.2241 14.583 13.9587V7.29167Z" fill="#282828"/>
</svg>
