<svg width="14" height="15" viewBox="0 0 14 15" fill="none" xmlns="http://www.w3.org/2000/svg">
<path fill-rule="evenodd" clip-rule="evenodd" d="M10.125 0.5625C10.125 0.25184 9.87316 0 9.5625 0C9.25184 0 9 0.25184 9 0.5625V1.5H4.125V0.5625C4.125 0.25184 3.87316 0 3.5625 0C3.25184 0 3 0.25184 3 0.5625V1.5H2.0625C0.923413 1.5 0 2.42341 0 3.5625V6.5625V12.5625C0 13.7016 0.923413 14.625 2.0625 14.625H11.0625C12.2016 14.625 13.125 13.7016 13.125 12.5625V6.5625V3.5625C13.125 2.42341 12.2016 1.5 11.0625 1.5H10.125V0.5625ZM12 6V3.5625C12 3.04473 11.5803 2.625 11.0625 2.625H10.125V3.5625C10.125 3.87316 9.87316 4.125 9.5625 4.125C9.25184 4.125 9 3.87316 9 3.5625V2.625H4.125V3.5625C4.125 3.87316 3.87316 4.125 3.5625 4.125C3.25184 4.125 3 3.87316 3 3.5625V2.625H2.0625C1.54473 2.625 1.125 3.04473 1.125 3.5625V6H12ZM1.125 7.125H12V12.5625C12 13.0803 11.5803 13.5 11.0625 13.5H2.0625C1.54473 13.5 1.125 13.0803 1.125 12.5625V7.125Z" fill="#BDBDBD"/>
</svg>
