<svg width="100" height="41" viewBox="0 0 100 41" fill="none" xmlns="http://www.w3.org/2000/svg">
<g filter="url(#filter0_d_5_2033)">
<g clip-path="url(#clip0_5_2033)">
<path d="M24.5116 20.0339C27.6924 18.0718 29.8533 14.6057 30.0003 10.6296C30.0089 10.3876 29.8101 10.1801 29.5681 10.1801H27.2343C27.0442 10.1801 26.8886 10.0246 26.8886 9.8344V7.43148C26.8886 7.18945 26.6898 6.99065 26.4391 6.9993C22.4717 7.15488 19.0056 9.30714 17.0348 12.488C15.0727 9.31578 11.6067 7.15488 7.63059 6.9993C7.38857 6.99065 7.18112 7.18945 7.18112 7.43148V9.76525C7.18112 9.95541 7.02554 10.111 6.83538 10.111H4.43245C4.19043 10.111 3.99163 10.3098 4.00027 10.5605C4.15586 14.5279 6.30812 17.994 9.48897 19.9647C6.31676 21.9355 4.15586 25.3929 4.00027 29.369C3.99163 29.611 4.19043 29.8184 4.43245 29.8184H6.76623C6.95639 29.8184 7.11197 29.974 7.11197 30.1642V32.5758C7.11197 32.8178 7.31078 33.0166 7.56144 33.0079C11.5289 32.8524 14.995 30.7001 16.9657 27.5192C18.9364 30.7001 22.4025 32.861 26.37 33.0079C26.612 33.0166 26.8194 32.8178 26.8194 32.5758V30.242C26.8194 30.0518 26.975 29.8962 27.1652 29.8962H29.5767C29.8188 29.8962 30.0176 29.6974 30.0089 29.4468C29.8533 25.4707 27.6924 22.0046 24.5116 20.0339ZM17.0003 18.5731C17.7868 18.5731 18.4265 19.2127 18.4265 19.9993C18.4265 20.7859 17.7868 21.4255 17.0003 21.4255C16.2137 21.4255 15.5741 20.7859 15.5741 19.9993C15.5741 19.2127 16.2137 18.5731 17.0003 18.5731ZM26.5255 10.8543C26.2057 14.7786 23.0854 17.9248 19.1698 18.2792C18.9624 18.2965 18.7809 18.1236 18.7981 17.9075C19.118 13.9833 22.2383 10.8371 26.1539 10.4827C26.3613 10.4654 26.5428 10.6383 26.5255 10.8543ZM14.9085 18.2014C10.9843 17.8816 7.83804 14.7613 7.48365 10.8457C7.46636 10.6383 7.63924 10.4567 7.85533 10.474C11.7795 10.7938 14.9258 13.9142 15.2802 17.8298C15.2975 18.0458 15.116 18.2274 14.9085 18.2014ZM7.47501 29.1442C7.79482 25.22 10.9152 22.0738 14.8307 21.7194C15.0382 21.7021 15.2197 21.875 15.2024 22.0911C14.8826 26.0153 11.7622 29.1615 7.84668 29.5159C7.63924 29.5332 7.45772 29.3603 7.47501 29.1442ZM19.1007 21.7972C23.0249 22.117 26.1712 25.2373 26.5255 29.1529C26.5428 29.3603 26.37 29.5419 26.1539 29.5246C22.2297 29.2048 19.0834 26.0844 18.729 22.1688C18.7031 21.9528 18.8846 21.7799 19.1007 21.7972Z" fill="#9D9FA2"/>
</g>
<path d="M82.286 27.2859C80.9886 26.0883 80.3398 24.3251 80.3398 21.9963C80.3398 19.6592 80.9886 17.896 82.286 16.7066C83.5835 15.509 85.4465 14.9102 87.8751 14.9102C90.312 14.9102 92.1792 15.509 93.4766 16.7066C94.7741 17.896 95.4228 19.6592 95.4228 21.9963C95.4228 24.3251 94.7741 26.0883 93.4766 27.2859C92.1792 28.4836 90.312 29.0824 87.8751 29.0824C85.4465 29.0824 83.5835 28.4836 82.286 27.2859ZM85.4424 18.7526C84.9267 19.4263 84.6689 20.5034 84.6689 21.9838C84.6689 23.4642 84.9267 24.5455 85.4424 25.2275C85.958 25.9095 86.7689 26.2505 87.8751 26.2505C88.9896 26.2505 89.8047 25.9095 90.3203 25.2275C90.8443 24.5455 91.1063 23.4642 91.1063 21.9838C91.1063 20.5034 90.8443 19.4263 90.3203 18.7526C89.8047 18.079 88.9896 17.7421 87.8751 17.7421C86.7689 17.7421 85.958 18.079 85.4424 18.7526Z" fill="#9D9FA2"/>
<path d="M73.7285 28.0723V11.7168C73.7285 11.4923 73.7992 11.3093 73.9406 11.1679C74.0903 11.0182 74.2733 10.9434 74.4895 10.9434H77.2841C77.5003 10.9434 77.6791 11.0182 77.8205 11.1679C77.9702 11.3093 78.0451 11.4923 78.0451 11.7168V28.0723C78.0451 28.2886 77.9702 28.4716 77.8205 28.6213C77.6791 28.7627 77.5003 28.8333 77.2841 28.8333H74.4895C74.2733 28.8333 74.0903 28.7627 73.9406 28.6213C73.7992 28.4716 73.7285 28.2886 73.7285 28.0723Z" fill="#9D9FA2"/>
<path d="M57.9339 27.9347C56.836 27.1695 56.2871 26.0883 56.2871 24.691C56.2871 23.2937 56.836 22.2208 57.9339 21.4723C59.0401 20.7238 60.4623 20.3495 62.2005 20.3495H66.33C66.33 19.3764 66.1262 18.6986 65.7187 18.316C65.3111 17.9334 64.5958 17.7421 63.5729 17.7421C62.5582 17.7421 61.8429 17.9958 61.427 18.5031C61.0195 19.0021 60.5163 19.2517 59.9175 19.2517H58.0586C57.8341 19.2517 57.6469 19.181 57.4972 19.0396C57.3559 18.8899 57.2852 18.7069 57.2852 18.4906C57.2852 16.1037 59.5516 14.9102 64.0844 14.9102C66.0638 14.9102 67.6524 15.3551 68.85 16.245C70.0477 17.1267 70.6465 18.4948 70.6465 20.3495V28.0719C70.6465 28.2965 70.5758 28.4794 70.4344 28.6208C70.293 28.7622 70.1101 28.8329 69.8855 28.8329H67.4777C67.2531 28.8329 67.0702 28.7622 66.9288 28.6208C66.7874 28.4711 66.7167 28.2881 66.7167 28.0719V27.6852C65.4026 28.625 63.8847 29.0907 62.1631 29.0824C60.4498 29.0824 59.0401 28.6998 57.9339 27.9347ZM62.5 23.1815C61.9178 23.1815 61.4562 23.3229 61.1152 23.6056C60.7825 23.8884 60.6161 24.2544 60.6161 24.7035C60.6161 25.1526 60.7908 25.5227 61.1401 25.8138C61.4894 26.1049 61.9843 26.2505 62.6247 26.2505C63.9055 26.2505 65.1406 25.8762 66.33 25.1277V23.1815H62.5Z" fill="#9D9FA2"/>
<path d="M55.5138 28.284C55.5138 28.6499 55.2975 28.8329 54.865 28.8329H52.0081C51.6838 28.8329 51.3344 28.7206 50.9602 28.4961C50.5859 28.2632 50.2948 27.9846 50.0869 27.6602L47.8912 24.1795C47.3672 23.3312 46.8391 22.6949 46.3068 22.2708C45.7745 21.8383 45.1341 21.622 44.3855 21.622H41.7033V27.6852C41.7033 28.0095 41.5869 28.284 41.354 28.5085C41.1294 28.7248 40.855 28.8329 40.5306 28.8329H38.1852C37.8608 28.8329 37.5822 28.7165 37.3493 28.4836C37.1164 28.2424 37 27.9596 37 27.6353V12.1281C37 11.8037 37.1164 11.521 37.3493 11.2798C37.5822 11.0386 37.8608 10.918 38.1852 10.918H40.5306C40.855 10.918 41.1294 11.0386 41.354 11.2798C41.5869 11.521 41.7033 11.8037 41.7033 12.1281V18.1039H44.3855C45.1174 18.1039 45.7579 17.9043 46.3068 17.5051C46.864 17.1059 47.3922 16.4613 47.8912 15.5714L49.8249 12.1281C50.2657 11.3297 50.8645 10.9263 51.6214 10.918H54.5032C54.9025 10.918 55.1021 11.0926 55.1021 11.4419C55.1021 11.6332 55.0314 11.862 54.89 12.1281L52.1828 17.031C51.7919 17.7463 51.3511 18.3368 50.8604 18.8025C50.378 19.2683 49.7459 19.5968 48.9641 19.7881C49.513 19.9045 50.0744 20.2497 50.6483 20.8236C51.2305 21.3975 51.742 22.0212 52.1828 22.6949L55.3017 27.6602C55.4431 27.9014 55.5138 28.1093 55.5138 28.284Z" fill="#9D9FA2"/>
</g>
<defs>
<filter id="filter0_d_5_2033" x="-3" y="0" width="105.424" height="48" filterUnits="userSpaceOnUse" color-interpolation-filters="sRGB">
<feFlood flood-opacity="0" result="BackgroundImageFix"/>
<feColorMatrix in="SourceAlpha" type="matrix" values="0 0 0 0 0 0 0 0 0 0 0 0 0 0 0 0 0 0 127 0" result="hardAlpha"/>
<feOffset dy="4"/>
<feGaussianBlur stdDeviation="2"/>
<feComposite in2="hardAlpha" operator="out"/>
<feColorMatrix type="matrix" values="0 0 0 0 0 0 0 0 0 0 0 0 0 0 0 0 0 0 0.25 0"/>
<feBlend mode="normal" in2="BackgroundImageFix" result="effect1_dropShadow_5_2033"/>
<feBlend mode="normal" in="SourceGraphic" in2="effect1_dropShadow_5_2033" result="shape"/>
</filter>
<clipPath id="clip0_5_2033">
<rect width="26" height="26" fill="white" transform="translate(4 7)"/>
</clipPath>
</defs>
</svg>
