<svg width="13" height="13" viewBox="0 0 13 13" fill="none" xmlns="http://www.w3.org/2000/svg">
<path fill-rule="evenodd" clip-rule="evenodd" d="M11.04 1.58203C11.3321 1.87428 11.496 2.27043 11.4961 2.68359C11.4961 3.09697 11.3323 3.49381 11.04 3.78613L10.6874 4.13879L8.4828 1.9342L8.83496 1.58203C9.1273 1.2897 9.52408 1.125 9.9375 1.125C10.3509 1.125 10.7477 1.2897 11.04 1.58203ZM9.89246 4.93371L7.68787 2.72912L1.125 9.29199V11.4961H3.33008L9.89246 4.93371ZM11.835 4.58203C12.3383 4.07872 12.6211 3.39539 12.6211 2.68359C12.621 1.97188 12.3382 1.28939 11.835 0.786133C11.3317 0.28289 10.6492 0 9.9375 0C9.22576 0 8.54334 0.28289 8.04004 0.786133L0.165039 8.66113C0.0596034 8.76657 6.00776e-05 8.90949 0 9.05859V12.0586C0 12.3693 0.25184 12.6211 0.5625 12.6211H3.5625C3.67459 12.6211 3.78316 12.5878 3.875 12.5264L3.95996 12.457L11.835 4.58203Z" fill="#BDBDBD"/>
</svg>
